<svg width="89" height="89" viewBox="0 0 89 89" fill="none" xmlns="http://www.w3.org/2000/svg">
<circle cx="44.5" cy="44.5" r="44.5" fill="white"/>
<path d="M20.7313 23.1969C20.3281 23.4031 20 23.9562 20 24.4062C20 24.875 20.3281 25.4094 20.75 25.625C21.0969 25.8031 21.2938 25.8125 24.9125 25.8125H28.7188L28.7656 26.0187C28.8875 26.5156 33.7813 48.5937 33.7813 48.6406C33.7813 48.6594 33.6031 48.7719 33.3875 48.8844C33.1625 48.9969 32.75 49.325 32.4688 49.6156C31.2125 50.9094 30.9219 52.6906 31.7 54.35C32.2438 55.5125 33.4156 56.4125 34.7094 56.6562C34.9906 56.7031 35.8063 56.75 36.5375 56.7594C37.5594 56.7687 37.7656 56.7875 37.4469 56.8531C35.3188 57.2656 33.7813 59.4594 34.1375 61.5875C34.5219 63.8844 36.6688 65.4781 38.9 65.1125C40.7375 64.8125 42.125 63.425 42.425 61.5875C42.7812 59.4594 41.2438 57.2656 39.1156 56.8531C38.8719 56.8062 42.6313 56.7687 48.2188 56.7687C53.8063 56.7687 57.5656 56.8062 57.3219 56.8531C55.1938 57.2656 53.6562 59.4594 54.0125 61.5875C54.3125 63.425 55.7 64.8125 57.5375 65.1125C59.7688 65.4781 61.9156 63.8844 62.3 61.5875C62.6562 59.4594 61.1188 57.2656 58.9906 56.8531C58.6719 56.7875 58.8875 56.7687 59.9188 56.7594C61.0625 56.75 61.3156 56.7219 61.625 56.5625C62.0469 56.3469 62.375 55.8125 62.375 55.3437C62.375 54.875 62.0469 54.3406 61.625 54.125C61.2594 53.9375 61.1 53.9375 48.2188 53.9375C35.3375 53.9375 35.1781 53.9375 34.8125 53.75C34.3906 53.5344 34.0625 53 34.0625 52.5312C34.0625 52.1094 34.3906 51.5281 34.7469 51.3406C35.0281 51.1812 35.8438 51.1719 48.2375 51.125C61.3719 51.0781 61.4281 51.0781 61.6813 50.8812C61.8219 50.7781 62.0188 50.5906 62.1125 50.4594C62.3 50.2156 68 30.3781 68 29.9844C68 29.5625 67.6531 29.0187 67.25 28.8125C66.8844 28.625 66.7344 28.625 49.55 28.625H32.2156L31.7094 26.3094C31.3438 24.6312 31.1375 23.9 30.9688 23.6469C30.5563 23 30.5844 23 25.55 23C21.2844 23.0094 21.0594 23.0187 20.7313 23.1969ZM64.6813 31.5969C64.6531 31.6906 63.575 35.4875 62.2719 40.0344L59.9094 48.3125H48.2563H36.5938L36.5469 48.0969C36.5188 47.9844 35.6938 44.2812 34.7188 39.875C33.7438 35.4687 32.9188 31.7656 32.8906 31.6437L32.8438 31.4375H48.7813C63.9313 31.4375 64.7281 31.4469 64.6813 31.5969ZM38.9375 59.75C39.3594 59.9656 39.6875 60.5 39.6875 60.9687C39.6875 61.6812 38.9938 62.375 38.2812 62.375C37.5688 62.375 36.875 61.6812 36.875 60.9687C36.875 60.5187 37.2031 59.9656 37.6063 59.7594C38.0563 59.5156 38.4781 59.5156 38.9375 59.75ZM58.8125 59.75C59.2344 59.9656 59.5625 60.5 59.5625 60.9687C59.5625 61.6812 58.8688 62.375 58.1562 62.375C57.4438 62.375 56.75 61.6812 56.75 60.9687C56.75 60.5187 57.0781 59.9656 57.4813 59.7594C57.9313 59.5156 58.3531 59.5156 58.8125 59.75Z" fill="#FD5606"/>
</svg>
