<svg width="20" height="20" viewBox="0 0 20 20" fill="none" xmlns="http://www.w3.org/2000/svg">
<path d="M8.53827 0.045763C6.87721 0.214025 5.20321 0.865505 3.82691 1.88371C3.27034 2.2979 2.31254 3.25139 1.90698 3.79501C0.0215732 6.34053 -0.500474 9.55478 0.496161 12.549C1.60929 15.9013 4.47839 18.326 8.04211 18.9257C8.70222 19.0336 10.3935 19.0336 11.0191 18.9214C13.0814 18.559 14.8201 17.6659 16.2395 16.2422C17.8014 14.6803 18.7419 12.7043 18.9835 10.491C19.0526 9.81796 19.0137 8.58403 18.8972 7.9153C18.6254 6.37936 18.0387 5.02031 17.0981 3.76912C16.7832 3.35062 16.0066 2.53951 15.5622 2.16846C13.6595 0.580753 11.0536 -0.204475 8.53827 0.045763ZM10.1778 1.5515C12.0804 1.71976 13.8062 2.51793 15.135 3.84678C18.0041 6.70725 18.3105 11.1296 15.8556 14.387C15.5233 14.8313 14.8287 15.526 14.3843 15.8582C12.7276 17.105 10.7084 17.6789 8.71516 17.4718C5.92372 17.1784 3.51195 15.4871 2.30822 12.9848C1.2555 10.7973 1.25982 8.21731 2.31685 6.02989C3.39115 3.80795 5.52248 2.15984 7.93425 1.68093C8.74537 1.5213 9.39684 1.48247 10.1778 1.5515Z" fill="#FD5606"/>
<path d="M5.97108 5.60272C5.76399 5.69763 5.67339 5.79255 5.58278 6.00827C5.50081 6.20674 5.50081 6.38794 5.58278 6.59072C5.63024 6.69427 6.12209 7.22063 7.04106 8.13961L8.43031 9.53317L7.04106 10.9267C5.63887 12.3289 5.51807 12.4756 5.51807 12.7647C5.51807 13.3083 6.14366 13.675 6.63119 13.4205C6.71748 13.373 7.40348 12.7215 8.14987 11.9751L9.50892 10.6118L10.8895 11.9881C11.6489 12.7431 12.3306 13.3946 12.4082 13.4334C12.8397 13.6491 13.4092 13.3601 13.4868 12.8855C13.5472 12.4972 13.5645 12.5144 12.0199 10.9699L10.5918 9.53317L11.9984 8.12235C13.5041 6.60367 13.53 6.56915 13.4868 6.18517C13.448 5.84001 13.0942 5.52074 12.7447 5.52074C12.4643 5.52074 12.2788 5.67606 10.9111 7.04805C10.1647 7.79876 9.53481 8.41142 9.50892 8.41142C9.48303 8.41142 8.85313 7.79876 8.10673 7.04805C6.5147 5.45171 6.42841 5.39131 5.97108 5.60272Z" fill="#FD5606"/>
</svg>
