<svg width="14" height="15" viewBox="0 0 14 15" fill="none" xmlns="http://www.w3.org/2000/svg">
<g opacity="0.7">
<path d="M6.93321 7.66623C4.81877 7.66623 3.09869 5.94615 3.09869 3.83172C3.09869 1.71728 4.81877 0 6.93321 0C9.04764 0 10.7677 1.72008 10.7677 3.83451C10.7677 5.94895 9.04764 7.66623 6.93321 7.66623ZM6.93321 0.570562C5.13482 0.570562 3.67205 2.03333 3.67205 3.83172C3.67205 5.6301 5.13482 7.09567 6.93321 7.09567C8.7316 7.09567 10.1944 5.6329 10.1944 3.83451C10.1944 2.03612 8.7316 0.570562 6.93321 0.570562Z" fill="#8C8FA5"/>
<path d="M13.5872 14.3199C13.4306 14.3199 13.3019 14.1912 13.3019 14.0346C13.3019 10.5245 10.4463 7.66894 6.93624 7.66894C3.42617 7.66894 0.570562 10.5245 0.570562 14.0346C0.570562 14.1912 0.441906 14.3199 0.285281 14.3199C0.128656 14.3199 0 14.1912 0 14.0346C0 12.1803 0.721593 10.4378 2.03333 9.12891C3.34506 7.81997 5.08751 7.09558 6.93904 7.09558C8.79057 7.09558 10.5358 7.81717 11.8448 9.12891C13.1537 10.4406 13.8781 12.1831 13.8781 14.0346C13.8725 14.1912 13.7438 14.3199 13.5872 14.3199Z" fill="#8C8FA5"/>
</g>
</svg>
