<svg width="193" height="193" viewBox="0 0 193 193" fill="none" xmlns="http://www.w3.org/2000/svg">
<path fill-rule="evenodd" clip-rule="evenodd" d="M131.59 70.182C131.59 79.4887 127.893 88.4142 121.312 94.995C114.732 101.576 105.806 105.273 96.4994 105.273C87.1927 105.273 78.2672 101.576 71.6863 94.995C65.1055 88.4142 61.4084 79.4887 61.4084 70.182C61.4084 60.8753 65.1055 51.9498 71.6863 45.369C78.2672 38.7881 87.1927 35.0911 96.4994 35.0911C105.806 35.0911 114.732 38.7881 121.312 45.369C127.893 51.9498 131.59 60.8753 131.59 70.182ZM114.045 70.182C114.045 74.8353 112.196 79.2981 108.906 82.5885C105.615 85.8789 101.153 87.7274 96.4994 87.7274C91.846 87.7274 87.3833 85.8789 84.0929 82.5885C80.8024 79.2981 78.9539 74.8353 78.9539 70.182C78.9539 65.5286 80.8024 61.0659 84.0929 57.7755C87.3833 54.4851 91.846 52.6365 96.4994 52.6365C101.153 52.6365 105.615 54.4851 108.906 57.7755C112.196 61.0659 114.045 65.5286 114.045 70.182Z" fill="white"/>
<path fill-rule="evenodd" clip-rule="evenodd" d="M96.5 0C43.2057 0 0 43.2057 0 96.5C0 149.794 43.2057 193 96.5 193C149.794 193 193 149.794 193 96.5C193 43.2057 149.794 0 96.5 0ZM17.5455 96.5C17.5455 114.835 23.8004 131.714 34.2838 145.118C41.6462 135.45 51.1441 127.615 62.0357 122.224C72.9274 116.834 84.9177 114.035 97.0702 114.045C109.065 114.034 120.905 116.761 131.687 122.018C142.469 127.275 151.908 134.924 159.286 144.382C166.888 134.412 172.005 122.776 174.217 110.436C176.428 98.0963 175.669 85.4072 172.002 73.4188C168.336 61.4304 161.868 50.4875 153.132 41.4953C144.397 32.5032 133.646 25.7204 121.769 21.7082C109.892 17.696 97.2299 16.5697 84.831 18.4225C72.4322 20.2753 60.6528 25.054 50.4675 32.3631C40.2821 39.6722 31.9837 49.3016 26.2588 60.4546C20.5339 71.6076 17.547 83.9635 17.5455 96.5ZM96.5 175.455C78.3751 175.482 60.7973 169.246 46.7411 157.804C52.3989 149.704 59.9295 143.091 68.6921 138.527C77.4548 133.964 87.1903 131.584 97.0702 131.591C106.827 131.583 116.445 133.903 125.125 138.358C133.805 142.814 141.297 149.275 146.978 157.207C132.813 169.022 114.945 175.48 96.5 175.455Z" fill="white"/>
</svg>
