<svg width="29" height="32" viewBox="0 0 29 32" fill="none" xmlns="http://www.w3.org/2000/svg">
<circle cx="17.5" cy="29.5" r="2.5" fill="#FD5606"/>
<path d="M0.441797 0.116729C0.198242 0.239017 0 0.566972 0 0.833782C0 1.11171 0.198242 1.42855 0.453125 1.55639C0.662695 1.66201 0.781641 1.66757 2.96797 1.66757H5.26758L5.2959 1.78985C5.36953 2.08446 8.32617 15.1749 8.32617 15.2026C8.32617 15.2138 8.21855 15.2805 8.08828 15.3472C7.95234 15.4139 7.70313 15.6084 7.5332 15.7807C6.77422 16.5478 6.59863 17.6039 7.06875 18.5878C7.39727 19.2771 8.10527 19.8107 8.88691 19.9552C9.05684 19.983 9.54961 20.0108 9.99141 20.0164C10.6088 20.0219 10.7334 20.033 10.5408 20.0719C9.25508 20.3165 8.32617 21.6172 8.54141 22.879C8.77363 24.2409 10.0707 25.1858 11.4188 24.969C12.5289 24.7912 13.3672 23.9685 13.5484 22.879C13.7637 21.6172 12.8348 20.3165 11.549 20.0719C11.4018 20.0441 13.673 20.0219 17.0488 20.0219C20.4246 20.0219 22.6959 20.0441 22.5486 20.0719C21.2629 20.3165 20.334 21.6172 20.5492 22.879C20.7305 23.9685 21.5688 24.7912 22.6789 24.969C24.027 25.1858 25.324 24.2409 25.5563 22.879C25.7715 21.6172 24.8426 20.3165 23.5568 20.0719C23.3643 20.033 23.4945 20.0219 24.1176 20.0164C24.8086 20.0108 24.9615 19.9941 25.1484 19.8996C25.4033 19.7718 25.6016 19.4549 25.6016 19.177C25.6016 18.8991 25.4033 18.5822 25.1484 18.4544C24.9275 18.3432 24.8313 18.3432 17.0488 18.3432C9.26641 18.3432 9.17012 18.3432 8.94922 18.2321C8.69434 18.1042 8.49609 17.7874 8.49609 17.5094C8.49609 17.2593 8.69434 16.9147 8.90957 16.8035C9.07949 16.709 9.57227 16.7035 17.0602 16.6757C24.9955 16.6479 25.0295 16.6479 25.1824 16.5311C25.2674 16.47 25.3863 16.3588 25.443 16.281C25.5563 16.1365 29 4.37458 29 4.14112C29 3.89099 28.7904 3.56859 28.5469 3.4463C28.326 3.33513 28.2354 3.33513 17.8531 3.33513H7.38027L7.07441 1.96217C6.85352 0.967188 6.72891 0.53362 6.62695 0.383539C6.37773 -7.75512e-07 6.39473 -7.75512e-07 3.35313 -7.75512e-07C0.775977 0.00555778 0.640039 0.0111163 0.441797 0.116729ZM26.9949 5.09719C26.9779 5.15278 26.3266 7.40399 25.5393 10.0999L24.1119 15.0081H17.0715H10.0254L9.99707 14.8803C9.98008 14.8135 9.48164 12.6179 8.89258 10.0054C8.30352 7.39288 7.80508 5.19725 7.78809 5.12499L7.75977 5.0027H17.3887C26.5418 5.0027 27.0232 5.00826 26.9949 5.09719ZM11.4414 21.7895C11.6963 21.9174 11.8945 22.2342 11.8945 22.5121C11.8945 22.9346 11.4754 23.3459 11.0449 23.3459C10.6145 23.3459 10.1953 22.9346 10.1953 22.5121C10.1953 22.2453 10.3936 21.9174 10.6371 21.7951C10.909 21.6506 11.1639 21.6506 11.4414 21.7895ZM23.4492 21.7895C23.7041 21.9174 23.9023 22.2342 23.9023 22.5121C23.9023 22.9346 23.4832 23.3459 23.0527 23.3459C22.6223 23.3459 22.2031 22.9346 22.2031 22.5121C22.2031 22.2453 22.4014 21.9174 22.6449 21.7951C22.9168 21.6506 23.1717 21.6506 23.4492 21.7895Z" fill="#FD5606"/>
</svg>
