<svg width="26" height="25" viewBox="0 0 26 25" fill="none" xmlns="http://www.w3.org/2000/svg">
<path d="M1.62729 0.0902014C0.897987 0.32338 0.292714 0.943537 0.0793801 1.6778C0.00992251 1.91594 0 2.3823 0 5.35905C0 8.56402 0.00496125 8.78728 0.0942638 9.07007C0.337365 9.84898 1.04186 10.4989 1.82078 10.6626C1.97458 10.6974 3.27939 10.7122 5.5318 10.7023L9.00467 10.6874L9.29243 10.5733C9.91755 10.3203 10.4385 9.78449 10.6766 9.14945C10.7858 8.85177 10.7907 8.83689 10.8056 5.55254C10.8155 3.27036 10.8056 2.15408 10.7659 1.93083C10.6121 1.0378 9.93243 0.298574 9.05429 0.0653954C8.85584 0.0108213 8.08684 -0.0040617 5.35815 0.000899315C2.16807 0.000899315 1.89024 0.00586033 1.62729 0.0902014ZM8.68219 1.85641C8.99475 2.02013 8.97987 1.83656 8.97987 5.35409C8.97987 8.23658 8.96995 8.56898 8.90049 8.67317C8.72188 8.92619 8.71692 8.92619 5.378 8.92619C2.57985 8.92619 2.25737 8.91627 2.09861 8.84185C1.78109 8.69301 1.78605 8.76743 1.78605 5.35409C1.78605 1.94075 1.78109 1.99036 2.09365 1.85641C2.34171 1.74726 8.47382 1.74726 8.68219 1.85641Z" fill="#8C8FA5"/>
<path d="M18.6047 0.0902214C17.5182 0.333323 16.6946 0.764953 15.9603 1.47937C15.0772 2.33767 14.5761 3.28031 14.3628 4.48093C13.9163 7.0459 15.4642 9.61087 17.9597 10.4344C18.6493 10.6627 19.1702 10.7321 19.9144 10.6974C21.2837 10.6329 22.405 10.1368 23.3972 9.14947C24.1414 8.4152 24.5681 7.69582 24.836 6.73334C24.9948 6.15783 25.0493 5.11597 24.9551 4.52558C24.6227 2.43193 23.0896 0.730224 21.0357 0.16464C20.3808 -0.0139647 19.2298 -0.0486937 18.6047 0.0902214ZM20.5147 1.90604C21.512 2.16403 22.3653 2.8586 22.8217 3.79132C23.0946 4.34202 23.1889 4.73395 23.1889 5.35411C23.1938 6.00404 23.1244 6.28683 22.8168 6.93179C22.6034 7.36838 22.5092 7.50233 22.1619 7.84962C21.8344 8.18203 21.6658 8.3011 21.2837 8.49458C20.6785 8.79722 20.2965 8.89148 19.6713 8.89148C19.0661 8.89148 18.6146 8.7873 18.0837 8.52931C17.1609 8.0828 16.4416 7.18977 16.1985 6.1876C16.0992 5.75597 16.0943 4.9721 16.1985 4.53054C16.6351 2.63534 18.6295 1.4248 20.5147 1.90604Z" fill="#8C8FA5"/>
<path d="M1.68683 14.3786C0.927759 14.6217 0.421711 15.1129 0.143881 15.872L0.0248108 16.1944V19.6425C0.0248108 22.8822 0.029772 23.1055 0.119075 23.3635C0.37706 24.1225 0.93272 24.6732 1.67691 24.9014C1.97954 24.9957 2.14327 25.0007 5.42762 25.0007C9.12375 25.0007 9.08406 25.0007 9.60003 24.7427C9.8729 24.5988 10.3442 24.1374 10.5129 23.8397C10.8205 23.299 10.8155 23.3783 10.8155 19.6376C10.8155 16.4326 10.8106 16.2093 10.7213 15.9265C10.4831 15.1625 9.79352 14.5126 9.02452 14.3389C8.88561 14.3042 7.52126 14.2893 5.38296 14.2893C2.24249 14.2893 1.93489 14.2993 1.68683 14.3786ZM8.71196 16.1448C9.03445 16.2788 9.02948 16.2093 9.02948 19.6673C9.02948 23.1154 9.03941 23.0062 8.707 23.1452C8.44902 23.2543 2.34172 23.2493 2.13334 23.1402C1.82078 22.9765 1.83567 23.16 1.83567 19.6425C1.83567 16.1002 1.82078 16.2887 2.15319 16.1399C2.39133 16.0357 8.4639 16.0406 8.71196 16.1448Z" fill="#8C8FA5"/>
<path d="M15.876 14.3786C15.1318 14.6168 14.6059 15.1228 14.3231 15.862C14.2189 16.1399 14.214 16.1944 14.1991 19.4441C14.1892 21.7213 14.1991 22.8425 14.2388 23.0658C14.3926 23.9538 15.0276 24.6534 15.9207 24.9213C16.1588 24.9907 16.6103 25.0007 19.6218 25.0007C23.3129 25.0007 23.2732 25.0007 23.7892 24.7427C24.0621 24.5988 24.5334 24.1374 24.7021 23.8397C25.0097 23.299 25.0047 23.3783 25.0047 19.6376C25.0047 16.4326 24.9998 16.2093 24.9104 15.9265C24.6723 15.1625 23.9827 14.5126 23.2137 14.3389C23.0748 14.3042 21.7104 14.2893 19.5721 14.2893C16.4317 14.2893 16.1241 14.2993 15.876 14.3786ZM22.8962 16.1498C23.2286 16.3036 23.2187 16.2193 23.2187 19.6376C23.2187 23.0211 23.2236 22.9864 22.9259 23.1402C22.792 23.2097 22.4149 23.2146 19.5424 23.2047L16.3126 23.1898L16.1687 23.0261L16.0248 22.8673V19.6475C16.0248 16.4723 16.0248 16.4276 16.129 16.2986C16.1836 16.2292 16.3027 16.1498 16.387 16.125C16.4763 16.1002 17.9151 16.0754 19.6366 16.0754C22.3604 16.0704 22.7523 16.0803 22.8962 16.1498Z" fill="#8C8FA5"/>
</svg>
