<svg width="25" height="32" viewBox="0 0 25 32" fill="none" xmlns="http://www.w3.org/2000/svg">
<path d="M10.7107 0.64055C11.2024 0.228141 11.84 0 12.5009 0C13.1618 0 13.7994 0.228141 14.2911 0.64055L24.1125 8.87818C24.392 9.11282 24.6154 9.39975 24.7683 9.7203C24.9212 10.0409 25.0002 10.3879 25 10.7388V22.4992C25 23.1625 24.7178 23.7985 24.2155 24.2675C23.7131 24.7365 23.0318 25 22.3214 25H17.8571C17.1467 25 16.4654 24.7365 15.9631 24.2675C15.4608 23.7985 15.1786 23.1625 15.1786 22.4992V16.664C15.1786 16.4429 15.0845 16.2309 14.9171 16.0746C14.7496 15.9182 14.5225 15.8304 14.2857 15.8304H10.7143C10.4775 15.8304 10.2504 15.9182 10.0829 16.0746C9.9155 16.2309 9.82143 16.4429 9.82143 16.664V22.4992C9.82143 23.1625 9.53922 23.7985 9.03689 24.2675C8.53456 24.7365 7.85326 25 7.14286 25H2.67857C1.96817 25 1.28687 24.7365 0.784535 24.2675C0.282206 23.7985 0 23.1625 0 22.4992V10.7388C0 10.0285 0.321428 9.35333 0.889286 8.87818L10.7107 0.64055ZM13.0964 1.87928C12.9326 1.74196 12.7202 1.66601 12.5 1.66601C12.2798 1.66601 12.0674 1.74196 11.9036 1.87928L2.08214 10.1186C1.98888 10.1967 1.91428 10.2924 1.86321 10.3992C1.81214 10.5061 1.78573 10.6218 1.78571 10.7388V22.4992C1.78571 22.7203 1.87978 22.9323 2.04723 23.0886C2.21467 23.245 2.44177 23.3328 2.67857 23.3328H7.14286C7.37966 23.3328 7.60676 23.245 7.7742 23.0886C7.94165 22.9323 8.03571 22.7203 8.03571 22.4992V16.664C8.03571 16.0007 8.31792 15.3647 8.82025 14.8957C9.32258 14.4267 10.0039 14.1632 10.7143 14.1632H14.2857C14.9961 14.1632 15.6774 14.4267 16.1798 14.8957C16.6821 15.3647 16.9643 16.0007 16.9643 16.664V22.4992C16.9643 22.7203 17.0584 22.9323 17.2258 23.0886C17.3932 23.245 17.6203 23.3328 17.8571 23.3328H22.3214C22.5582 23.3328 22.7853 23.245 22.9528 23.0886C23.1202 22.9323 23.2143 22.7203 23.2143 22.4992V10.7388C23.2143 10.6218 23.1879 10.5061 23.1368 10.3992C23.0857 10.2924 23.0111 10.1967 22.9179 10.1186L13.0964 1.87928Z" fill="#FD5606"/>
<circle cx="12.5" cy="29.5" r="2.5" fill="#FD5606"/>
</svg>
