<svg width="26" height="25" viewBox="0 0 26 25" fill="none" xmlns="http://www.w3.org/2000/svg">
<path d="M10.2988 0.142921C7.73581 0.606705 5.49827 1.7865 3.65128 3.64163C2.19484 5.08993 1.23473 6.63587 0.600082 8.53981C0.160709 9.88234 0.0630712 10.46 0.014252 12.1036C-0.0182941 13.3892 -0.00202102 13.7553 0.1363 14.5853C0.966225 19.3939 4.5463 23.3483 9.20852 24.585C10.4534 24.9186 11.1125 25 12.5201 25C14.0986 25 15.0017 24.8535 16.4582 24.3816C19.3466 23.4378 21.8771 21.3548 23.4149 18.6535C26.0674 13.9994 25.3839 7.97026 21.7632 4.04845C19.9406 2.07941 17.7844 0.842663 15.0831 0.21615C13.9765 -0.0360813 11.503 -0.0767632 10.2988 0.142921ZM14.3183 1.40408C17.7275 1.99805 20.6566 4.05659 22.3165 7.01015C24.1635 10.3136 24.2041 14.3167 22.4304 17.7259C21.8852 18.7756 21.1611 19.7194 20.2254 20.6226C18.6632 22.1115 16.8813 23.0472 14.6925 23.5029C13.5941 23.7388 11.6088 23.7632 10.5266 23.5517C5.66914 22.6079 2.05652 18.8407 1.36492 13.9831C1.24287 13.1207 1.30796 11.0459 1.48696 10.2403C1.69851 9.2721 2.07279 8.2469 2.55285 7.3112C4.1232 4.26 7.18253 2.00619 10.5673 1.42036C11.4868 1.25763 13.4477 1.24949 14.3183 1.40408Z" fill="#8C8FA5"/>
<path d="M8.65529 5.75712C5.58782 7.52275 4.96944 7.90516 4.84739 8.13299C4.71721 8.38522 4.70907 8.71882 4.72534 12.6081L4.74975 16.8228L4.95317 17.0181C5.31117 17.3598 12.2354 21.2979 12.4795 21.2979C12.7317 21.2979 12.927 21.1921 15.5306 19.6869C19.5989 17.3354 20.0952 17.0425 20.1685 16.896C20.2173 16.8065 20.2498 15.0734 20.2498 12.4779V8.20621L20.0708 8.0028C19.9651 7.88889 18.3622 6.92064 16.507 5.85476C12.6829 3.64976 12.6666 3.64162 12.4632 3.64162C12.3818 3.64162 10.6731 4.5936 8.65529 5.75712ZM15.5225 6.79046C16.9789 7.62852 18.1669 8.35267 18.1669 8.39336C18.175 8.46658 12.6259 11.6968 12.4957 11.6968C12.3655 11.6968 6.7432 8.41776 6.79202 8.36895C6.81643 8.34454 8.102 7.58784 9.65608 6.68468C12.3167 5.14688 12.4876 5.05738 12.6829 5.15502C12.7968 5.21198 14.0742 5.9524 15.5225 6.79046ZM9.05398 11.2493L11.8692 12.8766V16.1881C11.8692 18.0189 11.8448 19.5078 11.8123 19.5078C11.7716 19.5078 10.4697 18.7674 8.89938 17.8561L6.0516 16.2126L6.02719 12.8929C6.01091 10.0939 6.02719 9.57315 6.12483 9.59756C6.18178 9.61383 7.4999 10.3543 9.05398 11.2493ZM18.948 12.8929V16.2126L16.1328 17.8399C14.5787 18.7349 13.285 19.4753 13.2443 19.4916C13.2036 19.5078 13.1711 18.0514 13.1711 16.1881V12.8522L16.0026 11.2167C17.5566 10.3217 18.8503 9.58129 18.891 9.58129C18.9236 9.58129 18.948 11.0703 18.948 12.8929Z" fill="#8C8FA5"/>
</svg>
